<svg xmlns="http://www.w3.org/2000/svg" viewBox="0 0 32 32">
  <defs>
    <linearGradient id="grad1" x1="0%" y1="0%" x2="100%" y2="100%">
      <stop offset="0%" style="stop-color:#3b82f6;stop-opacity:1" />
      <stop offset="100%" style="stop-color:#8b5cf6;stop-opacity:1" />
    </linearGradient>
    <linearGradient id="grad2" x1="0%" y1="0%" x2="100%" y2="100%">
      <stop offset="0%" style="stop-color:#10b981;stop-opacity:1" />
      <stop offset="100%" style="stop-color:#06b6d4;stop-opacity:1" />
    </linearGradient>
  </defs>
  
  <!-- Background -->
  <rect width="32" height="32" fill="#1e293b" rx="3"/>
  
  <!-- Puzzle pieces - representing software components being assembled -->
  
  <!-- Background shadow piece -->
  <path d="M 6 6 L 14 6 C 14 8 15 9 17 9 C 19 9 20 8 20 6 L 28 6 L 28 14 C 26 14 25 15 25 17 C 25 19 26 20 28 20 L 28 28 L 6 28 L 6 6 Z" 
        fill="url(#grad1)" opacity="0.3"/>
  
  <!-- Main puzzle piece 1 (Blue-Purple) -->
  <path d="M 4 4 L 12 4 L 12 8 C 13.5 8 14 9 14 10 C 14 11 13.5 12 12 12 L 12 14 L 4 14 Z" 
        fill="url(#grad1)" stroke="#60a5fa" stroke-width="0.5"/>
  
  <!-- Main puzzle piece 2 (Green-Cyan) -->
  <path d="M 14 4 L 15 4 C 15 5.5 16 6 17 6 C 18 6 19 5.5 19 4 L 28 4 L 28 14 L 20 14 L 20 12 C 18.5 12 18 11 18 10 C 18 9 18.5 8 20 8 L 20 4 Z" 
        fill="url(#grad2)" stroke="#34d399" stroke-width="0.5"/>
  
  <!-- Main puzzle piece 3 (Orange) -->
  <path d="M 4 16 L 12 16 L 12 18 C 13.5 18 14 19 14 20 C 14 21 13.5 22 12 22 L 12 28 L 4 28 Z" 
        fill="#f59e0b" stroke="#fbbf24" stroke-width="0.5"/>
  
  <!-- Main puzzle piece 4 (Red) -->
  <path d="M 14 16 L 15 16 C 15 17.5 16 18 17 18 C 18 18 19 17.5 19 16 L 28 16 L 28 28 L 14 28 Z" 
        fill="#ef4444" stroke="#f87171" stroke-width="0.5"/>
  
  <!-- Connection points -->
  <circle cx="13" cy="13" r="1" fill="#fff" opacity="0.6"/>
  <circle cx="19" cy="13" r="1" fill="#fff" opacity="0.6"/>
  <circle cx="13" cy="19" r="1" fill="#fff" opacity="0.6"/>
  <circle cx="19" cy="19" r="1" fill="#fff" opacity="0.6"/>
</svg>